<?xml version="1.0" encoding="UTF-8"?>
<svg version="1.1" xmlns="http://www.w3.org/2000/svg" width="216" height="216">
<path d="M0 0 C1.93601074 0.00845947 1.93601074 0.00845947 3.91113281 0.01708984 C12.93131338 0.13214898 21.1401789 0.66789115 29.8125 3.3125 C30.48104004 3.51117676 31.14958008 3.70985352 31.83837891 3.91455078 C59.10056998 12.18051151 82.0827874 30.25513053 96.04296875 55.203125 C100.83464294 64.17260912 104.34190545 73.4432951 106.8125 83.3125 C106.99868896 84.03896729 107.18487793 84.76543457 107.37670898 85.51391602 C109.05804602 92.82762 109.15901085 100.01955584 109.125 107.5 C109.11936035 108.79067383 109.1137207 110.08134766 109.10791016 111.41113281 C108.99285102 120.43131338 108.45710885 128.6401789 105.8125 137.3125 C105.61382324 137.98104004 105.41514648 138.64958008 105.21044922 139.33837891 C96.94448849 166.60056998 78.86986947 189.5827874 53.921875 203.54296875 C44.95239088 208.33464294 35.6817049 211.84190545 25.8125 214.3125 C25.08603271 214.49868896 24.35956543 214.68487793 23.61108398 214.87670898 C16.29738 216.55804602 9.10544416 216.65901085 1.625 216.625 C-0.31101074 216.61654053 -0.31101074 216.61654053 -2.28613281 216.60791016 C-11.30631338 216.49285102 -19.5151789 215.95710885 -28.1875 213.3125 C-29.19031006 213.01448486 -29.19031006 213.01448486 -30.21337891 212.71044922 C-57.47556998 204.44448849 -80.4577874 186.36986947 -94.41796875 161.421875 C-99.20964294 152.45239088 -102.71690545 143.1817049 -105.1875 133.3125 C-105.37368896 132.58603271 -105.55987793 131.85956543 -105.75170898 131.11108398 C-107.43304602 123.79738 -107.53401085 116.60544416 -107.5 109.125 C-107.49436035 107.83432617 -107.4887207 106.54365234 -107.48291016 105.21386719 C-107.36785102 96.19368662 -106.83210885 87.9848211 -104.1875 79.3125 C-103.98882324 78.64395996 -103.79014648 77.97541992 -103.58544922 77.28662109 C-95.31948849 50.02443002 -77.24486947 27.0422126 -52.296875 13.08203125 C-43.32739088 8.29035706 -34.0567049 4.78309455 -24.1875 2.3125 C-23.46103271 2.12631104 -22.73456543 1.94012207 -21.98608398 1.74829102 C-14.67238 0.06695398 -7.48044416 -0.03401085 0 0 Z " fill="#4FA2EF" transform="translate(107.1875,-0.3125)"/>
<path d="M0 0 C1.6572258 -0.0129007 1.6572258 -0.0129007 3.34793091 -0.02606201 C4.57077789 -0.03032196 5.79362488 -0.03458191 7.05352783 -0.03897095 C8.33311371 -0.04714844 9.61269958 -0.05532593 10.93106079 -0.06375122 C15.18703087 -0.09001018 19.44301097 -0.10528486 23.69903564 -0.11953735 C25.16281389 -0.12489586 26.62659207 -0.13027336 28.09037018 -0.13566971 C34.17931134 -0.15730607 40.2682498 -0.17604266 46.3572197 -0.1872921 C55.08910167 -0.20352892 63.82053842 -0.23669089 72.55225253 -0.29369295 C78.68818126 -0.33238529 84.82399089 -0.35192404 90.96003842 -0.35721266 C94.62629899 -0.36086782 98.29208515 -0.3729047 101.95821381 -0.4053154 C106.05015036 -0.44097019 110.14113022 -0.43702708 114.23321533 -0.42959595 C115.44796539 -0.44600128 116.66271545 -0.46240662 117.91427612 -0.47930908 C127.0518544 -0.41120496 127.0518544 -0.41120496 130.13146973 2.62786865 C131.00796173 3.87825424 131.00796173 3.87825424 131.90216064 5.15390015 C132.23216064 5.48390015 132.56216064 5.81390015 132.90216064 6.15390015 C133.18322166 9.89627017 133.13401476 13.65223793 133.15216064 17.40390015 C133.18309814 18.97977905 133.18309814 18.97977905 133.21466064 20.5874939 C133.22239502 22.11309937 133.22239502 22.11309937 133.23028564 23.66952515 C133.23963135 24.60055054 133.24897705 25.53157593 133.25860596 26.49081421 C132.82789563 29.70875138 131.80850085 31.54398975 129.90216064 34.15390015 C126.55682807 36.38412186 125.47060468 36.40921076 121.56381226 36.42805481 C120.45624573 36.43802994 119.3486792 36.44800507 118.20755005 36.45828247 C116.99189362 36.45894714 115.77623718 36.45961182 114.52374268 36.46029663 C113.24386475 36.46862015 111.96398682 36.47694366 110.64532471 36.48551941 C107.13287323 36.5074747 103.62050881 36.51626465 100.10799646 36.52134585 C97.913386 36.52498823 95.71879838 36.53122766 93.52419662 36.53834724 C85.86745959 36.56284537 78.21079034 36.5758944 70.55401611 36.57943726 C63.41761411 36.5830728 56.28164212 36.61296813 49.14537156 36.65484184 C43.0178801 36.68953543 36.89053121 36.70498553 30.76294219 36.70568329 C27.10344063 36.70647644 23.44437702 36.71523165 19.78497696 36.74368095 C15.70279854 36.77470715 11.62164467 36.76580667 7.53936768 36.75326538 C6.3277597 36.76809967 5.11615173 36.78293396 3.86782837 36.79821777 C-4.31148619 36.72647914 -4.31148619 36.72647914 -8.32516479 33.80393982 C-11.83518721 28.55667173 -11.38641123 23.38386881 -11.47283936 17.27890015 C-11.51022217 16.28503296 -11.54760498 15.29116577 -11.58612061 14.2671814 C-11.67501847 6.88865833 -11.67501847 6.88865833 -8.63690186 3.02108765 C-7.79901123 2.40491577 -6.96112061 1.7887439 -6.09783936 1.15390015 C-4.4122973 -0.53164191 -2.31173846 0.01333513 0 0 Z " fill="#FEFEFE" transform="translate(47.09783935546875,34.846099853515625)"/>
<path d="M0 0 C14.85 0 29.7 0 45 0 C45.495 2.475 45.495 2.475 46 5 C43.69 5.99 41.38 6.98 39 8 C38.90912109 9.71509766 38.90912109 9.71509766 38.81640625 11.46484375 C38.73201572 12.95574305 38.64736698 14.44662775 38.5625 15.9375 C38.52318359 16.69224609 38.48386719 17.44699219 38.44335938 18.22460938 C38.11328125 23.88671875 38.11328125 23.88671875 37 25 C34.85441173 25.08775605 32.70595579 25.10695219 30.55859375 25.09765625 C29.25341797 25.09443359 27.94824219 25.09121094 26.60351562 25.08789062 C25.2148431 25.07953401 23.82617123 25.07106905 22.4375 25.0625 C21.04492344 25.05748666 19.65234519 25.05292347 18.25976562 25.04882812 C14.8398013 25.03699434 11.41992156 25.0205088 8 25 C6.414131 21.828262 6.62133555 18.36486178 6.4375 14.875 C6.39431641 14.12089844 6.35113281 13.36679688 6.30664062 12.58984375 C6.2005168 10.72678112 6.09974999 8.86341476 6 7 C3.69 6.34 1.38 5.68 -1 5 C-0.67 3.35 -0.34 1.7 0 0 Z " fill="#FEFEFE" transform="translate(85,166)"/>
<path d="M0 0 C14.85 0 29.7 0 45 0 C45.495 2.475 45.495 2.475 46 5 C43.69 5.99 41.38 6.98 39 8 C38.90912109 9.71509766 38.90912109 9.71509766 38.81640625 11.46484375 C38.73201572 12.95574305 38.64736698 14.44662775 38.5625 15.9375 C38.52318359 16.69224609 38.48386719 17.44699219 38.44335938 18.22460938 C38.11328125 23.88671875 38.11328125 23.88671875 37 25 C34.85441173 25.08775605 32.70595579 25.10695219 30.55859375 25.09765625 C29.25341797 25.09443359 27.94824219 25.09121094 26.60351562 25.08789062 C25.2148431 25.07953401 23.82617123 25.07106905 22.4375 25.0625 C21.04492344 25.05748666 19.65234519 25.05292347 18.25976562 25.04882812 C14.8398013 25.03699434 11.41992156 25.0205088 8 25 C6.414131 21.828262 6.62133555 18.36486178 6.4375 14.875 C6.39431641 14.12089844 6.35113281 13.36679688 6.30664062 12.58984375 C6.2005168 10.72678112 6.09974999 8.86341476 6 7 C3.69 6.34 1.38 5.68 -1 5 C-0.67 3.35 -0.34 1.7 0 0 Z " fill="#FEFEFE" transform="translate(85,136)"/>
<path d="M0 0 C14.85 0 29.7 0 45 0 C45.495 2.475 45.495 2.475 46 5 C43.69 5.99 41.38 6.98 39 8 C38.90912109 9.71509766 38.90912109 9.71509766 38.81640625 11.46484375 C38.73201572 12.95574305 38.64736698 14.44662775 38.5625 15.9375 C38.52318359 16.69224609 38.48386719 17.44699219 38.44335938 18.22460938 C38.11328125 23.88671875 38.11328125 23.88671875 37 25 C34.85441173 25.08775605 32.70595579 25.10695219 30.55859375 25.09765625 C29.25341797 25.09443359 27.94824219 25.09121094 26.60351562 25.08789062 C25.2148431 25.07953401 23.82617123 25.07106905 22.4375 25.0625 C21.04492344 25.05748666 19.65234519 25.05292347 18.25976562 25.04882812 C14.8398013 25.03699434 11.41992156 25.0205088 8 25 C6.414131 21.828262 6.62133555 18.36486178 6.4375 14.875 C6.39431641 14.12089844 6.35113281 13.36679688 6.30664062 12.58984375 C6.2005168 10.72678112 6.09974999 8.86341476 6 7 C3.69 6.34 1.38 5.68 -1 5 C-0.67 3.35 -0.34 1.7 0 0 Z " fill="#FEFEFE" transform="translate(85,106)"/>
<path d="M0 0 C14.85 0 29.7 0 45 0 C45.495 2.475 45.495 2.475 46 5 C43.69 5.99 41.38 6.98 39 8 C38.90912109 9.71509766 38.90912109 9.71509766 38.81640625 11.46484375 C38.73201572 12.95574305 38.64736698 14.44662775 38.5625 15.9375 C38.52318359 16.69224609 38.48386719 17.44699219 38.44335938 18.22460938 C38.11328125 23.88671875 38.11328125 23.88671875 37 25 C34.85441173 25.08775605 32.70595579 25.10695219 30.55859375 25.09765625 C29.25341797 25.09443359 27.94824219 25.09121094 26.60351562 25.08789062 C25.2148431 25.07953401 23.82617123 25.07106905 22.4375 25.0625 C21.04492344 25.05748666 19.65234519 25.05292347 18.25976562 25.04882812 C14.8398013 25.03699434 11.41992156 25.0205088 8 25 C6.414131 21.828262 6.62133555 18.36486178 6.4375 14.875 C6.39431641 14.12089844 6.35113281 13.36679688 6.30664062 12.58984375 C6.2005168 10.72678112 6.09974999 8.86341476 6 7 C3.69 6.34 1.38 5.68 -1 5 C-0.67 3.35 -0.34 1.7 0 0 Z " fill="#FEFEFE" transform="translate(85,76)"/>
<path d="M0 0 C0.72799805 0.81165619 1.45599609 1.62331238 2.20605469 2.45956421 C7.03276019 6.43877804 12.73489429 5.69717245 18.703125 5.64697266 C19.98183472 5.65573425 21.26054443 5.66449585 22.57800293 5.67352295 C26.07404941 5.69625573 29.56935554 5.68750574 33.06541443 5.67162752 C36.73015282 5.65893687 40.39482934 5.67071739 44.05957031 5.67855835 C50.21300597 5.68764578 56.36614123 5.67569111 62.51953125 5.65185547 C69.62592773 5.62464555 76.73160689 5.63346038 83.83798599 5.6609875 C89.94776661 5.68370371 96.05733174 5.6868665 102.16714096 5.67379415 C105.81259666 5.66601328 109.45771558 5.66491995 113.10314941 5.68147659 C117.16815421 5.6986504 121.23192946 5.67482527 125.296875 5.64697266 C127.10182434 5.66215439 127.10182434 5.66215439 128.9432373 5.67764282 C135.88138847 5.68118321 135.88138847 5.68118321 141.79394531 2.45956421 C142.88594238 1.24207993 142.88594238 1.24207993 144 0 C143.67782273 3.75873481 142.62757688 6.31806255 139.85702515 8.94269943 C135.56477684 11.38649864 130.18802818 10.6871192 125.39453125 10.64697266 C123.47427628 10.66011505 123.47427628 10.66011505 121.51522827 10.67352295 C118.01092655 10.69628353 114.50736226 10.6874942 111.00304794 10.67162752 C107.33249706 10.65895133 103.66200849 10.67071338 99.99145508 10.67855835 C93.82784715 10.68764998 87.66453896 10.67568006 81.50097656 10.65185547 C74.37924459 10.62464474 67.25822834 10.63345927 60.13651371 10.6609875 C54.0174272 10.68369171 47.89855591 10.68687236 41.77944088 10.67379415 C38.12673654 10.6660067 34.47436841 10.66493814 30.82168579 10.68147659 C26.74918364 10.69862852 22.67791149 10.67484481 18.60546875 10.64697266 C17.39700287 10.65709381 16.18853699 10.66721497 14.94345093 10.67764282 C5.85251401 10.5622034 5.85251401 10.5622034 2.76293945 7.63534546 C0.98333404 4.97508674 0.27170821 3.16992913 0 0 Z " fill="#4E6D7C" transform="translate(36,65)"/>
<path d="M0 0 C10.23 0.33 20.46 0.66 31 1 C30.67 2.32 30.34 3.64 30 5 C20.43 5 10.86 5 1 5 C0.67 3.35 0.34 1.7 0 0 Z " fill="#4E6D7C" transform="translate(92,190)"/>
<path d="M0 0 C10.23 0.33 20.46 0.66 31 1 C30.67 2.32 30.34 3.64 30 5 C20.43 5 10.86 5 1 5 C0.67 3.35 0.34 1.7 0 0 Z " fill="#4E6D7C" transform="translate(92,160)"/>
<path d="M0 0 C10.23 0.33 20.46 0.66 31 1 C30.67 2.32 30.34 3.64 30 5 C20.43 5 10.86 5 1 5 C0.67 3.35 0.34 1.7 0 0 Z " fill="#4E6D7C" transform="translate(92,130)"/>
<path d="M0 0 C10.23 0.33 20.46 0.66 31 1 C30.67 2.32 30.34 3.64 30 5 C20.43 5 10.86 5 1 5 C0.67 3.35 0.34 1.7 0 0 Z " fill="#4E6D7C" transform="translate(92,100)"/>
<path d="M0 0 C2.31 0.33 4.62 0.66 7 1 C7.33 2.65 7.66 4.3 8 6 C5.69 5.67 3.38 5.34 1 5 C0.67 3.35 0.34 1.7 0 0 Z " fill="#537485" transform="translate(84,171)"/>
<path d="M0 0 C2.31 0.33 4.62 0.66 7 1 C7.33 2.65 7.66 4.3 8 6 C5.69 5.67 3.38 5.34 1 5 C0.67 3.35 0.34 1.7 0 0 Z " fill="#537485" transform="translate(84,141)"/>
<path d="M0 0 C2.31 0.33 4.62 0.66 7 1 C7.33 2.65 7.66 4.3 8 6 C5.69 5.67 3.38 5.34 1 5 C0.67 3.35 0.34 1.7 0 0 Z " fill="#537485" transform="translate(84,111)"/>
<path d="M0 0 C2.31 0.33 4.62 0.66 7 1 C7.33 2.65 7.66 4.3 8 6 C5.69 5.67 3.38 5.34 1 5 C0.67 3.35 0.34 1.7 0 0 Z " fill="#537485" transform="translate(84,81)"/>
<path d="M0 0 C0.33 1.32 0.66 2.64 1 4 C-1.31 4.66 -3.62 5.32 -6 6 C-5.67 4.35 -5.34 2.7 -5 1 C-3.35 0.67 -1.7 0.34 0 0 Z " fill="#51707F" transform="translate(130,171)"/>
<path d="M0 0 C0.33 1.32 0.66 2.64 1 4 C-1.31 4.66 -3.62 5.32 -6 6 C-5.67 4.35 -5.34 2.7 -5 1 C-3.35 0.67 -1.7 0.34 0 0 Z " fill="#51707F" transform="translate(130,141)"/>
<path d="M0 0 C0.33 1.32 0.66 2.64 1 4 C-1.31 4.66 -3.62 5.32 -6 6 C-5.67 4.35 -5.34 2.7 -5 1 C-3.35 0.67 -1.7 0.34 0 0 Z " fill="#51707F" transform="translate(130,111)"/>
<path d="M0 0 C0.33 1.32 0.66 2.64 1 4 C-1.31 4.66 -3.62 5.32 -6 6 C-5.67 4.35 -5.34 2.7 -5 1 C-3.35 0.67 -1.7 0.34 0 0 Z " fill="#51707F" transform="translate(130,81)"/>
</svg>
